<svg version="1" xmlns="http://www.w3.org/2000/svg" width="266.667" height="266.667" viewBox="0 0 200.000000 200.000000"><path d="M106.7 10.7C90.7 36.5 75.2 68 64 98c-4.7 12.5-10.2 22.1-21.2 36.9-9.4 12.6-25.7 28.6-33.6 33.1-11.6 6.5-12.9 6.2 21.8 5.6 17.4-.3 35.7-1.1 40.8-1.9l9.4-1.3-.7 3.1c-1 4.2-.9 4.9 1.5 15.3l2.2 9.2h10.9c6.9 0 10.9-.4 10.9-1 0-2.8-3.4-7.2-6.8-8.8-5.4-2.5-5.4-6-.1-13.7l4.1-6-.5 4c-.7 5.7 6.6 23.5 9.7 23.5 2.7 0 18.8-2.8 19.3-3.4 1.1-1.1-3.4-6.6-6.1-7.6-8.6-3.2-8.6-3.8-1-21.5 3.5-8.2 6.4-15.4 6.4-16 0-.6-.9-2.6-1.9-4.6-1.4-2.6-1.6-4-.9-5.3.6-1 .7-4.1.3-7.3-.5-4.2-.3-5.8.7-6.4 2.5-1.6 3.5-.9 5.3 3.7 2.1 5.6 2.9 4.6 3.9-4.4l.7-6.2H127v-5.4c0-3 .4-5.8 1-6.1.5-.3 2.7.6 4.7 2 2.1 1.4 4.1 2.5 4.5 2.5.4 0-.7-2.9-2.5-6.6-2.4-5-3.6-6.4-4.9-6-1.3.3-1.8-.2-1.8-1.5 0-2.1 2.9-11 3.9-12.1.4-.5 5 .9 10.2 3.1 11 4.5 24.5 8.1 30.4 8.1 3.9 0 4.4-.3 7.9-5.4 5.9-8.5 6.8-9.2 11.7-7.6 3.3 1.1 4.2 1.1 4.9.1 2.3-3.8 3.9-34.7 2.4-44.3-.6-3.5-1.3-4.2-9.3-8.7-19-10.9-51.6-22.5-74.2-26.5l-3.7-.7-5.5 8.8zm57.5 63.5c-.9.9-1.2.7-1.2-1.2s.3-2.1 1.2-1.2c.9.9.9 1.5 0 2.4zm7.9.8c1.8 1 1.8 1.2.3 4.2-1.2 2.4-1.8 2.8-2.5 1.7-1-1.5-1.2-6.9-.3-6.9.3 0 1.4.5 2.5 1zm8.9 5.5c0 .8-.4 1.5-1 1.5-.5 0-1-.7-1-1.5s.5-1.5 1-1.5c.6 0 1 .7 1 1.5z"/></svg>